<svg width="24" height="24" viewBox="0 0 24 24" fill="none" xmlns="http://www.w3.org/2000/svg">
<path d="M5.25 6.748V6.62375L5.15095 6.54872L3.25 5.10875V4.2425H6.40771C6.35472 4.40387 6.31433 4.57092 6.28778 4.7425H4.338H3.59395L4.18704 5.19178L5.75 6.37576V19.0075V19.2575H6H18H18.25V19.0075V6.36702L19.9832 5.19934L20.662 4.742H19.8435H12.7125C12.6859 4.57051 12.6456 4.40346 12.5925 4.242H21V5.11745L18.8604 6.55813L18.75 6.63245V6.7655V19.758H5.25V6.748Z" fill="#19171B" stroke="#19171B" stroke-width="0.5"/>
<path d="M10.25 12V11.75H10H8H7.75V12V14V14.25H8H10H10.25V14V12ZM16.25 12V11.75H16H13H12.75V12V19V19.25H13H16H16.25V19V12ZM7.25 14.75V11.25H10.75V14.75H7.25ZM12.25 19.75V11.25H16.75V19.75H12.25Z" fill="#19171B" stroke="#19171B" stroke-width="0.5"/>
<path d="M3.32322 19.6768C3.27634 19.6299 3.25 19.5663 3.25 19.5C3.25 19.4337 3.27634 19.3701 3.32322 19.3232C3.37011 19.2763 3.4337 19.25 3.5 19.25H20.5C20.5663 19.25 20.6299 19.2763 20.6768 19.3232C20.7237 19.3701 20.75 19.4337 20.75 19.5C20.75 19.5663 20.7237 19.6299 20.6768 19.6768C20.6299 19.7237 20.5663 19.75 20.5 19.75H3.5C3.4337 19.75 3.37011 19.7237 3.32322 19.6768Z" fill="#19171B" stroke="#19171B" stroke-width="0.5"/>
<path d="M7.25 6.75H5.25V6.25H7.25V6.75ZM18.5 6.75H11.75V6.25H18.5V6.75Z" fill="#19171B" stroke="#19171B" stroke-width="0.5"/>
<path d="M10.25 3.5V3.25H10H9H8.75V3.5V4.25H8H7.75V4.5V5.5V5.75H8H8.75V6.5V6.75H9H10H10.25V6.5V5.75H11H11.25V5.5V4.5V4.25H11H10.25V3.5ZM12.25 5C12.25 5.36114 12.1789 5.71873 12.0407 6.05238C11.9025 6.38602 11.6999 6.68918 11.4445 6.94454C11.1892 7.19991 10.886 7.40247 10.5524 7.54067C10.2187 7.67887 9.86114 7.75 9.5 7.75C9.13886 7.75 8.78127 7.67887 8.44762 7.54067C8.11398 7.40247 7.81082 7.19991 7.55546 6.94454C7.3001 6.68918 7.09753 6.38602 6.95933 6.05238C6.82113 5.71873 6.75 5.36114 6.75 5C6.75 4.27065 7.03973 3.57118 7.55546 3.05546C8.07118 2.53973 8.77065 2.25 9.5 2.25C10.2293 2.25 10.9288 2.53973 11.4445 3.05546C11.9603 3.57118 12.25 4.27065 12.25 5Z" fill="#19171B" stroke="#19171B" stroke-width="0.5"/>
</svg>
