<svg width="42" height="42" viewBox="0 0 42 42" fill="none" xmlns="http://www.w3.org/2000/svg">
<path d="M4.69112 16.917H37.3578M4.69112 15.167V19.8337M37.3578 15.167V19.8337M21.0244 15.167V19.8337M12.8578 15.167V18.667M29.1911 15.167V18.667M36.0692 23.6907C36.1275 23.4078 36.2816 23.1536 36.5055 22.9711C36.7294 22.7887 37.0094 22.689 37.2983 22.6891C37.6448 22.6891 37.958 22.8291 38.1849 23.0566C38.5384 23.4095 38.5058 23.9957 38.1744 24.3697L36.0441 26.7724H38.5524M20.4872 23.574L21.6177 22.7276V26.8109M4.67128 26.7782C4.37506 26.7781 4.09102 26.6603 3.88156 26.4509C3.6721 26.2414 3.55435 25.9574 3.5542 25.6612V23.812C3.5542 23.1954 4.0547 22.6949 4.67128 22.6949C5.28903 22.6949 5.78895 23.1954 5.78895 23.8126V25.6612C5.78879 25.9574 5.67105 26.2414 5.46159 26.4509C5.25213 26.6603 4.9675 26.7781 4.67128 26.7782Z" stroke="#19171B" stroke-miterlimit="10" stroke-linecap="round" stroke-linejoin="round"/>
</svg>
