<svg width="12" height="12" viewBox="0 0 12 12" fill="none" xmlns="http://www.w3.org/2000/svg">
<path d="M6.5625 2.34972L9.8625 5.64971C9.9125 5.69972 9.948 5.75388 9.969 5.81221C9.98967 5.87055 10 5.93305 10 5.99971C10 6.06638 9.98967 6.12888 9.969 6.18721C9.948 6.24555 9.9125 6.29971 9.8625 6.34971L6.5625 9.64971C6.47083 9.74138 6.35633 9.78938 6.219 9.79371C6.08133 9.79771 5.9625 9.74971 5.8625 9.64971C5.7625 9.55805 5.71033 9.44355 5.706 9.30621C5.702 9.16855 5.75 9.04971 5.85 8.94971L8.3 6.49971L2.7125 6.49971C2.57083 6.49971 2.452 6.45188 2.356 6.35621C2.26033 6.26021 2.2125 6.14138 2.2125 5.99971C2.2125 5.85805 2.26033 5.73938 2.356 5.64371C2.452 5.54771 2.57083 5.49971 2.7125 5.49971L8.3 5.49971L5.85 3.04972C5.75833 2.95805 5.71033 2.84138 5.706 2.69971C5.702 2.55805 5.75 2.44138 5.85 2.34972C5.94167 2.24972 6.05833 2.19971 6.2 2.19971C6.34167 2.19971 6.4625 2.24972 6.5625 2.34972Z" fill="white"/>
</svg>
