<svg width="16" height="16" viewBox="0 0 16 16" fill="none" xmlns="http://www.w3.org/2000/svg">
<path d="M11.2334 1.93301C11.4001 2.09967 11.4834 2.29701 11.4834 2.52501C11.4834 2.75256 11.4001 2.94967 11.2334 3.11634L6.35006 7.99967L11.2501 12.8997C11.4056 13.0552 11.4834 13.2497 11.4834 13.483C11.4834 13.7163 11.4001 13.9163 11.2334 14.083C11.0667 14.2497 10.8694 14.333 10.6414 14.333C10.4138 14.333 10.2167 14.2497 10.0501 14.083L4.45006 8.46634C4.3834 8.39967 4.33606 8.32745 4.30806 8.24967C4.28051 8.1719 4.26673 8.08856 4.26673 7.99967C4.26673 7.91079 4.28051 7.82745 4.30806 7.74967C4.33606 7.6719 4.3834 7.59967 4.45006 7.53301L10.0667 1.91634C10.2223 1.76079 10.4138 1.68301 10.6414 1.68301C10.8694 1.68301 11.0667 1.76634 11.2334 1.93301Z" fill="#19171B"/>
</svg>
