<svg width="111" height="20" viewBox="0 0 111 20" fill="none" xmlns="http://www.w3.org/2000/svg">
<path d="M0.900602 0.0166874C0.824167 -0.0161834 0.734441 0.000251984 0.671299 0.0594194L0.0664666 0.628084C0.0265876 0.667529 0 0.723409 0 0.779289V19.2066C0 19.2625 0.0232636 19.3151 0.0631426 19.3546C0.103022 19.394 0.156193 19.417 0.212688 19.417H0.81752C0.874016 19.417 0.927189 19.394 0.967068 19.3546C1.00695 19.3151 1.03021 19.2625 1.03021 19.2066V0.207338C1.03021 0.125161 0.98036 0.0495581 0.903926 0.0166874" fill="white"/>
<path d="M73.0086 16.4225C72.9122 16.2187 72.7029 16.0905 72.4769 16.0905H71.6826C71.5264 16.0905 71.3802 16.1497 71.2672 16.2581L71.2406 16.2844C70.7953 16.7249 70.2868 17.0602 69.6986 17.3034C69.1104 17.5434 68.5023 17.6617 67.8609 17.6617C67.2195 17.6617 66.6146 17.5434 66.0364 17.3034C65.4548 17.0602 64.9497 16.7249 64.5077 16.2877C63.5473 15.3312 63.0953 14.2596 63.092 12.9481C63.092 12.3104 63.2116 11.7187 63.4542 11.1435C63.6968 10.5715 64.0458 10.062 64.5077 9.6051C64.953 9.16792 65.4548 8.82935 66.0364 8.58939C66.6146 8.34944 67.2162 8.2311 67.8609 8.22782C68.5023 8.22782 69.1104 8.34944 69.6986 8.58939C70.2868 8.83264 70.7953 9.16792 71.2373 9.6051C71.347 9.71357 71.4965 9.77603 71.6527 9.77603H72.4735C72.7029 9.77603 72.9122 9.64455 73.0086 9.43746C73.105 9.23037 73.0717 8.99042 72.9255 8.8162C72.324 8.11277 71.5862 7.5441 70.7222 7.12336C69.8449 6.69275 68.8811 6.47909 67.8576 6.47909C66.9603 6.47909 66.1029 6.65002 65.302 6.99516C64.511 7.33373 63.8131 7.8005 63.2216 8.38559C62.6301 8.97069 62.1615 9.65769 61.8258 10.4302C61.4869 11.2158 61.3174 12.0573 61.3174 12.9448C61.3174 13.8323 61.4869 14.6771 61.8258 15.466C62.1615 16.2483 62.6267 16.9419 63.2216 17.527C63.8131 18.1121 64.5144 18.5755 65.3053 18.9075C66.1062 19.2428 66.9603 19.4105 67.8576 19.4105H67.8609C68.8811 19.4105 69.8415 19.1968 70.7189 18.7662C71.5829 18.3454 72.3273 17.7636 72.9255 17.0405C73.0684 16.8663 73.0983 16.6263 73.0019 16.4225" fill="white"/>
<path d="M97.7502 7.41873C96.853 6.79418 95.8227 6.47534 94.7194 6.47534C94.0714 6.47534 93.4466 6.58381 92.8584 6.80404C92.2768 7.02099 91.7484 7.32669 91.2865 7.71785C90.8246 8.10901 90.4358 8.57249 90.13 9.10171C89.821 9.63751 89.6182 10.2259 89.5219 10.8504V10.88C89.4986 10.9392 89.4886 11.0016 89.4886 11.0641V18.8249C89.4886 18.9794 89.5484 19.1273 89.6614 19.2358C89.7744 19.3442 89.9206 19.4067 90.0768 19.4067H90.6418C90.798 19.4067 90.9475 19.3475 91.0572 19.2358C91.1669 19.124 91.23 18.9794 91.23 18.8249V11.6722C91.2367 10.6729 91.5557 9.90047 92.237 9.22005C92.9548 8.5462 93.7457 8.23064 94.7161 8.22077C95.4306 8.22406 96.0587 8.40814 96.6536 8.78615C96.8829 8.93407 97.182 8.90777 97.378 8.72041L97.8134 8.3161C97.943 8.19777 98.0095 8.02684 97.9962 7.84933C97.9829 7.67183 97.8898 7.51405 97.7469 7.41215" fill="white"/>
<path d="M5.05471 7.03165C5.0813 7.04151 5.10788 7.04808 5.13447 7.04808C5.18764 7.04808 5.24414 7.02836 5.28401 6.98563L5.88885 6.39067C5.92873 6.35122 5.95199 6.29863 5.95199 6.24275V5.78256C5.95199 5.72668 5.92873 5.67409 5.88885 5.63793C5.84897 5.59848 5.7958 5.57547 5.7393 5.57547H5.13779C5.0813 5.57547 5.02812 5.59848 4.98825 5.63464C4.94837 5.67409 4.9251 5.72668 4.9251 5.78256V6.841C4.9251 6.92318 4.97827 6.99878 5.05471 7.03165ZM5.81906 7.4261C5.7393 7.39323 5.64957 7.40966 5.58975 7.46883L4.98492 8.06379C4.94504 8.10324 4.92178 8.15583 4.92178 8.21171V19.2004C4.92178 19.2563 4.94504 19.3056 4.98492 19.3483C5.0248 19.3878 5.07797 19.4108 5.13447 19.4108H5.7393C5.7958 19.4108 5.84897 19.3878 5.88885 19.3483C5.92873 19.3089 5.95199 19.2563 5.95199 19.2004V7.62004C5.95199 7.53457 5.90214 7.45897 5.82238 7.4261" fill="white"/>
<path d="M19.5274 10.7846V10.7452C19.4277 10.1272 19.2283 9.55199 18.9259 9.02277C18.6235 8.49684 18.2413 8.03993 17.7827 7.65535C17.3274 7.27076 16.8056 6.96835 16.2274 6.75469C15.6458 6.53774 15.031 6.42927 14.3896 6.42927C13.7482 6.42927 13.1301 6.53774 12.5486 6.75469C11.9703 6.97163 11.4519 7.27076 10.9933 7.65535C10.538 8.04322 10.1558 8.50012 9.85339 9.02277C9.54765 9.55199 9.34826 10.1272 9.25188 10.7485V10.7781C9.25188 10.8109 9.24523 10.8208 9.24523 10.8241L9.2253 10.9161V19.2028C9.2253 19.2587 9.24856 19.308 9.28511 19.3508C9.32499 19.3902 9.37816 19.4132 9.43466 19.4132H10.0362C10.0927 19.4132 10.1458 19.3902 10.1824 19.3508C10.2223 19.3113 10.2455 19.2587 10.2455 19.2028V11.5637C10.2455 10.4001 10.641 9.44352 11.4452 8.65133C12.2495 7.85914 13.2165 7.46798 14.393 7.46469C15.5661 7.46469 16.5331 7.85586 17.3374 8.65133C17.7229 9.02934 18.012 9.45666 18.2114 9.93658C18.4108 10.4198 18.5204 10.926 18.5371 11.4651V19.2028C18.5371 19.2587 18.5603 19.308 18.6002 19.3508C18.6401 19.3902 18.6932 19.4132 18.7464 19.4132H19.3479C19.4044 19.4132 19.4576 19.3902 19.4975 19.3508C19.5374 19.3113 19.5573 19.2587 19.5573 19.2028V10.8865C19.5573 10.8504 19.5473 10.8142 19.5307 10.7846" fill="white"/>
<path d="M31.4779 19.0817L25.7918 11.1105L29.3178 7.62621C29.3577 7.58677 29.3809 7.53418 29.3809 7.4783V6.58421C29.3809 6.49875 29.3277 6.42314 29.2513 6.39027C29.1715 6.3574 29.0818 6.37384 29.022 6.43629L24.9909 10.4268L24.5489 10.8903L23.6516 11.7581V0.207282C23.6516 0.125105 23.6018 0.0495022 23.522 0.0166314C23.4423 -0.0162394 23.3525 0.0034831 23.2927 0.0626505L22.7178 0.634602C22.6779 0.674047 22.658 0.72664 22.658 0.78252V19.2066C22.658 19.2625 22.6812 19.3118 22.7178 19.3545C22.7577 19.394 22.8108 19.417 22.8673 19.417H23.4456C23.5021 19.417 23.5552 19.394 23.5951 19.3545C23.635 19.3151 23.6549 19.2625 23.6549 19.2066V13.2405L25.0341 11.8731L30.3779 19.3249C30.4178 19.3775 30.4809 19.4104 30.5474 19.4104H31.315C31.3915 19.4104 31.4679 19.3677 31.5011 19.2986C31.5377 19.2329 31.5311 19.1474 31.4845 19.085" fill="white"/>
<path d="M58.9944 0.016182C58.918 -0.0134017 58.8249 0.00303366 58.7651 0.0622011L58.1902 0.634152C58.1503 0.673597 58.127 0.726191 58.127 0.782071V9.41722C57.6252 8.63818 56.9639 7.98406 56.1464 7.45812C55.0896 6.77441 53.8899 6.43256 52.5739 6.43256C51.67 6.43256 50.8159 6.6002 50.0216 6.93877C49.2307 7.27405 48.5361 7.73753 47.9413 8.32591C47.3464 8.9143 46.8778 9.6013 46.5388 10.3836C46.1966 11.1692 46.0271 12.014 46.0271 12.9081C46.0271 13.8022 46.1966 14.6502 46.5388 15.4457C46.8778 16.2379 47.3464 16.9315 47.9413 17.5199C48.5361 18.1083 49.2307 18.5717 50.0249 18.907C50.8192 19.2423 51.6733 19.4099 52.5772 19.4099H52.5839C53.8999 19.4099 55.0929 19.0681 56.1497 18.3844C57.2032 17.7039 58.0008 16.8099 58.5292 15.7087C58.682 15.3668 58.8083 15.0151 58.9113 14.6437C59.0143 14.2689 59.0841 13.8876 59.124 13.4965V12.3624V0.206832C59.124 0.121368 59.0742 0.0490527 58.9944 0.016182ZM57.6784 15.0118C57.3959 15.6857 57.0005 16.2708 56.4887 16.777L56.6382 16.9249L56.4887 16.777C55.9769 17.2799 55.3854 17.6744 54.7041 17.9538C54.0261 18.2332 53.3183 18.3712 52.5772 18.3712C51.8361 18.3712 51.1349 18.2332 50.4636 17.9538C49.7923 17.6744 49.2041 17.2832 48.6923 16.777C48.1805 16.2708 47.7851 15.6857 47.5026 15.0118C47.2201 14.3413 47.0805 13.6411 47.0805 12.9081C47.0805 12.1751 47.2201 11.4815 47.5026 10.8175C47.7851 10.1535 48.1805 9.57171 48.6923 9.0655C49.2041 8.5593 49.7923 8.16813 50.4636 7.88873C51.1349 7.60933 51.8361 7.47127 52.5772 7.47127C53.3183 7.47127 54.0261 7.61262 54.7041 7.88873C55.3854 8.16813 55.9769 8.5593 56.4887 9.0655C57.0005 9.57171 57.3959 10.1535 57.6784 10.8175C57.9576 11.4815 58.1005 12.1751 58.1005 12.9081C58.1005 13.6411 57.9609 14.3413 57.6784 15.0118Z" fill="white"/>
<path d="M87.2553 12.1197C87.2453 12.0113 87.232 11.9094 87.2121 11.8075C87.0792 11.0482 86.8199 10.3349 86.4344 9.68402C86.0523 9.03646 85.5704 8.4678 84.9988 7.98789C84.4239 7.50469 83.7725 7.12667 83.0547 6.85713C82.3302 6.58759 81.5592 6.45282 80.7583 6.45282C79.8611 6.45282 79.0037 6.62375 78.2027 6.97218C77.4118 7.31075 76.7139 7.77751 76.1224 8.35933C75.5308 8.94443 75.0656 9.63143 74.7299 10.4072C74.3876 11.1928 74.2182 12.0376 74.2215 12.9185C74.2215 13.8027 74.391 14.6508 74.7299 15.443C75.0656 16.2286 75.5308 16.9189 76.1224 17.504C76.7173 18.0924 77.4151 18.5526 78.2094 18.8845C79.007 19.2198 79.8644 19.3875 80.7583 19.3875H80.7716C82.0477 19.3875 83.2308 19.0489 84.261 18.3783C84.7196 18.0792 85.1351 17.7374 85.5039 17.3561V18.8057C85.5039 18.9602 85.5671 19.1081 85.6767 19.2165C85.7897 19.3283 85.936 19.3875 86.0922 19.3875H86.6837C86.8432 19.3875 86.9894 19.3283 87.1024 19.2165C87.2154 19.1081 87.2752 18.9602 87.2752 18.8057V12.4386C87.2752 12.3334 87.2686 12.2282 87.2586 12.1197M85.5305 12.9185C85.5305 13.004 85.5305 13.0796 85.5305 13.1486C85.5305 13.1617 85.5305 13.1848 85.5206 13.2111L85.5073 13.3064C85.4109 14.4404 84.9722 15.4002 84.1381 16.2615C83.6761 16.6986 83.1644 17.0372 82.5828 17.2772C82.0046 17.5171 81.403 17.6355 80.7583 17.6355C80.1136 17.6355 79.5154 17.5171 78.9372 17.2772C78.3523 17.0339 77.8372 16.6954 77.3753 16.2549C76.9432 15.8111 76.6009 15.3016 76.355 14.7231C76.1124 14.1512 75.9928 13.5562 75.9895 12.9185C75.9895 12.2808 76.1091 11.6891 76.355 11.1172C76.6009 10.5387 76.9399 10.0292 77.3885 9.56897C77.8372 9.14165 78.3523 8.80308 78.9372 8.55984C79.5154 8.31988 80.1169 8.20155 80.7583 8.20155C81.3997 8.20155 82.0046 8.31988 82.5828 8.55984C83.1644 8.80308 83.6828 9.14165 84.1447 9.58212C84.9689 10.4006 85.4076 11.3473 85.5039 12.5043L85.5139 12.5701C85.5272 12.6292 85.5305 12.672 85.5305 12.6884C85.5305 12.7541 85.5305 12.8298 85.5305 12.9152" fill="white"/>
<path d="M110.997 12.4225C110.987 12.3173 110.973 12.2121 110.953 12.1036C110.86 11.3114 110.624 10.5653 110.246 9.87499C109.873 9.19456 109.398 8.59302 108.827 8.08353C108.252 7.57074 107.59 7.16972 106.853 6.88374C106.105 6.59448 105.307 6.44985 104.47 6.44985C103.649 6.44985 102.858 6.59448 102.114 6.88374C101.376 7.16643 100.711 7.57074 100.13 8.08024C99.5481 8.58974 99.0695 9.19127 98.694 9.87499C98.3184 10.5587 98.0825 11.3049 97.9894 12.0938C97.9695 12.2055 97.9562 12.3173 97.9462 12.4225C97.9363 12.5342 97.9296 12.6493 97.9296 12.7676V12.9221C97.9296 13.8063 98.0991 14.6511 98.4381 15.4433C98.7737 16.2256 99.239 16.9192 99.8339 17.5043C100.425 18.0927 101.127 18.5529 101.918 18.8849C102.715 19.2201 103.573 19.3878 104.466 19.3878H104.476C105.66 19.3878 106.766 19.0985 107.753 18.52C108.73 17.9513 109.514 17.1822 110.076 16.2322C110.182 16.0514 110.182 15.8279 110.079 15.6471C109.973 15.4663 109.777 15.3545 109.568 15.3545H108.876C108.684 15.3545 108.504 15.4433 108.395 15.6011C108.205 15.8673 108.019 16.0843 107.843 16.2618C107.388 16.6957 106.873 17.0342 106.288 17.2775C105.709 17.5174 105.108 17.6358 104.466 17.6391C103.822 17.6391 103.22 17.5174 102.645 17.2775C102.06 17.0342 101.545 16.6957 101.08 16.2552C100.648 15.8114 100.306 15.3019 100.06 14.7234C99.8737 14.283 99.7574 13.8293 99.7142 13.3527H110.412C110.568 13.3527 110.718 13.2903 110.827 13.1818C110.94 13.0733 111 12.9254 111 12.7709C111 12.6526 110.997 12.5375 110.987 12.4258M99.887 11.6007C99.9668 11.3312 100.07 11.0715 100.196 10.8217C100.422 10.3713 100.721 9.95716 101.087 9.57586C101.545 9.13868 102.06 8.8034 102.642 8.56015C103.22 8.3202 103.822 8.20186 104.463 8.20186C105.105 8.20186 105.706 8.3202 106.284 8.56015C106.866 8.8034 107.384 9.14197 107.846 9.58244C108.202 9.95059 108.498 10.3648 108.727 10.8184C108.853 11.0682 108.956 11.3279 109.036 11.5974H99.8837L99.887 11.6007Z" fill="white"/>
<path d="M44.7708 12.4517C44.7609 12.3465 44.7476 12.238 44.7276 12.1263C44.6346 11.3374 44.3986 10.5879 44.0231 9.90091C43.6476 9.2172 43.1757 8.61566 42.6007 8.10617C42.0258 7.59667 41.3678 7.19565 40.6267 6.90638C39.8823 6.61712 39.0881 6.47249 38.244 6.47249C37.4198 6.47249 36.6322 6.61383 35.8878 6.90638C35.1467 7.19236 34.482 7.59338 33.9005 8.10617C33.3189 8.61566 32.837 9.2172 32.4615 9.90091C32.086 10.5912 31.85 11.3374 31.757 12.1361C31.7403 12.238 31.7237 12.3465 31.7171 12.4517C31.7071 12.5569 31.7038 12.6653 31.7038 12.7804V12.9415C31.7038 13.8323 31.8733 14.6737 32.2122 15.4659C32.5479 16.2548 33.0131 16.9418 33.6047 17.5269C34.1962 18.112 34.8941 18.5755 35.6917 18.9075C36.4926 19.2428 37.3434 19.4104 38.244 19.4104H38.2473C39.4436 19.4104 40.5436 19.1212 41.5273 18.5459C42.511 17.974 43.2887 17.2081 43.8536 16.2581C43.8935 16.1957 43.8935 16.1168 43.8536 16.051C43.817 15.9886 43.7473 15.9458 43.6742 15.9458H42.9364C42.8666 15.9458 42.8035 15.9787 42.7636 16.0346C42.5509 16.3337 42.3415 16.5835 42.1322 16.7906C41.6071 17.2935 41.0122 17.6814 40.3442 17.9608C39.6763 18.2369 38.9784 18.375 38.2406 18.375C37.5029 18.375 36.805 18.2369 36.137 17.9608C35.469 17.6814 34.8742 17.2935 34.3458 16.7873C33.8406 16.2713 33.4452 15.6796 33.166 15.0189C32.8902 14.3713 32.7506 13.6975 32.7473 12.9842H44.5714C44.6279 12.9842 44.6778 12.9612 44.7177 12.925C44.7575 12.8856 44.7775 12.833 44.7775 12.7771C44.7775 12.6621 44.7708 12.5536 44.7642 12.4484M32.837 11.9488C32.9334 11.4458 33.0962 10.9692 33.3222 10.5189C33.5847 9.99952 33.9237 9.52618 34.3458 9.089C34.8742 8.58608 35.469 8.19492 36.137 7.9188C36.8017 7.64269 37.5029 7.50463 38.2406 7.50463C38.9784 7.50463 39.6763 7.64269 40.3442 7.9188C41.0122 8.1982 41.6071 8.58608 42.1355 9.09229C42.5542 9.5229 42.8932 9.99952 43.159 10.5189C43.3884 10.9692 43.5479 11.4458 43.6442 11.9488H32.8437H32.837Z" fill="white"/>
</svg>
