<svg width="8" height="8" viewBox="0 0 8 8" fill="none" xmlns="http://www.w3.org/2000/svg">
<path d="M0.966687 2.38379C1.05002 2.30046 1.14869 2.25879 1.26269 2.25879C1.37646 2.25879 1.47502 2.30046 1.55835 2.38379L4.00002 4.82546L6.45002 2.37546C6.5278 2.29768 6.62502 2.25879 6.74169 2.25879C6.85835 2.25879 6.95835 2.30046 7.04169 2.38379C7.12502 2.46712 7.16669 2.56579 7.16669 2.67979C7.16669 2.79357 7.12502 2.89212 7.04169 2.97546L4.23335 5.77546C4.20002 5.80879 4.16391 5.83246 4.12502 5.84646C4.08613 5.86023 4.04446 5.86712 4.00002 5.86712C3.95558 5.86712 3.91391 5.86023 3.87502 5.84646C3.83613 5.83246 3.80002 5.80879 3.76669 5.77546L0.958354 2.96712C0.880576 2.88934 0.841687 2.79357 0.841687 2.67979C0.841687 2.56579 0.883353 2.46712 0.966687 2.38379Z" fill="#009EE0"/>
</svg>
