<svg width="16" height="16" viewBox="0 0 16 16" fill="none" xmlns="http://www.w3.org/2000/svg">
<path d="M6.33333 7.99967C6.7 7.99967 7.014 7.86901 7.27533 7.60767C7.53622 7.34679 7.66667 7.03301 7.66667 6.66634C7.66667 6.29967 7.53622 5.98567 7.27533 5.72434C7.014 5.46345 6.7 5.33301 6.33333 5.33301C5.96667 5.33301 5.65289 5.46345 5.392 5.72434C5.13067 5.98567 5 6.29967 5 6.66634C5 7.03301 5.13067 7.34679 5.392 7.60767C5.65289 7.86901 5.96667 7.99967 6.33333 7.99967ZM6.33333 12.8997C7.68889 11.6552 8.69444 10.5246 9.35 9.50768C10.0056 8.49123 10.3333 7.58856 10.3333 6.79967C10.3333 5.58856 9.94711 4.59679 9.17467 3.82434C8.40267 3.05234 7.45556 2.66634 6.33333 2.66634C5.21111 2.66634 4.26378 3.05234 3.49133 3.82434C2.71933 4.59679 2.33333 5.58856 2.33333 6.79967C2.33333 7.58856 2.66111 8.49123 3.31667 9.50768C3.97222 10.5246 4.97778 11.6552 6.33333 12.8997ZM6.33333 14.4163C6.24444 14.4163 6.15556 14.3997 6.06667 14.3663C5.97778 14.333 5.9 14.2886 5.83333 14.233C4.21111 12.7997 3 11.4692 2.2 10.2417C1.4 9.01367 1 7.86634 1 6.79967C1 5.13301 1.53622 3.80523 2.60867 2.81634C3.68067 1.82745 4.92222 1.33301 6.33333 1.33301C7.74444 1.33301 8.986 1.82745 10.058 2.81634C11.1304 3.80523 11.6667 5.13301 11.6667 6.79967C11.6667 7.86634 11.2667 9.01367 10.4667 10.2417C9.66667 11.4692 8.45556 12.7997 6.83333 14.233C6.76667 14.2886 6.68889 14.333 6.6 14.3663C6.51111 14.3997 6.42222 14.4163 6.33333 14.4163Z" fill="#009EE0"/>
</svg>
