<svg width="24" height="24" viewBox="0 0 24 24" fill="none" xmlns="http://www.w3.org/2000/svg">
<g clip-path="url(#clip0_0_172)">
<path d="M7.68752 0.168751C4.98752 1.05 3.46877 3.7125 4.20002 6.24375C4.59377 7.575 5.41877 8.6625 6.50627 9.31875C7.29377 9.7875 7.59377 9.84375 9.00002 9.84375C10.4063 9.84375 10.7063 9.7875 11.4938 9.31875C12.5813 8.6625 13.4063 7.575 13.8 6.24375C14.4375 4.05 13.3313 1.63125 11.1563 0.525001C10.35 0.1125 8.45627 -0.093749 7.68752 0.168751ZM10.275 1.78125C12.5625 2.75625 13.2 5.4 11.5688 7.25625C10.1625 8.86875 7.83752 8.86875 6.43127 7.25625C4.81877 5.41875 5.41877 2.775 7.68752 1.8C8.53127 1.425 9.39377 1.425 10.275 1.78125Z" fill="#19171B"/>
<path d="M3.28125 12.2437C1.7625 12.825 0.73125 13.875 0.225 15.3562C-0.075 16.2188 -0.075 20.475 0.225 20.775C0.375 20.925 1.40625 21 3.58125 21C6.1875 21 6.76875 20.9437 7.0125 20.7C7.36875 20.3625 7.36875 20.325 7.125 19.8562C6.9375 19.5375 6.69375 19.5 4.21875 19.5H1.5V17.8125C1.5 16.8 1.6125 15.8625 1.7625 15.5062C2.08125 14.7 3.225 13.725 3.975 13.5937C4.3125 13.5375 6.7875 13.5 9.46875 13.5375C14.0062 13.5937 14.4 13.6125 14.8875 13.9687C15.8062 14.6062 16.1625 14.775 16.425 14.6812C16.7437 14.5687 16.9125 14.025 16.7625 13.6312C16.6312 13.275 15.4875 12.5062 14.6437 12.225C13.7625 11.925 4.06875 11.9437 3.28125 12.2437Z" fill="#19171B"/>
<path d="M17.025 16.2563C16.8562 16.4438 16.2375 17.6625 15.6375 18.975C15.0375 20.3063 14.4937 21.375 14.4 21.375C14.325 21.375 14.1187 21.0938 13.95 20.7563C13.7812 20.4375 13.4437 19.875 13.1812 19.5563C12.7312 18.9563 12.7125 18.9375 11.2312 18.9375C9.6 18.9375 9 19.125 9 19.6688C9 20.2313 9.4125 20.4188 10.7812 20.475L12.075 20.5313L13.05 22.2188C14.0625 23.9813 14.4937 24.3 15.0187 23.6813C15.1687 23.4938 15.8062 22.2563 16.4062 20.9438C17.6812 18.1875 17.475 18.1875 18.8812 20.8125C20.1187 23.1188 20.0437 23.0625 21.8625 23.0625C23.025 23.0625 23.4937 22.9875 23.7 22.7625C24.4312 22.0313 23.9062 21.6 22.2187 21.525L20.9437 21.4688L19.5562 18.9375C18.3187 16.65 17.7937 15.9375 17.4375 15.9375C17.3625 15.9375 17.175 16.0875 17.025 16.2563Z" fill="#19171B"/>
</g>
<defs>
<clipPath id="clip0_0_172">
<path d="M0 12C0 5.37258 5.37258 0 12 0C18.6274 0 24 5.37258 24 12V24H0V12Z" fill="white"/>
</clipPath>
</defs>
</svg>
