<svg width="16" height="16" viewBox="0 0 16 16" fill="none" xmlns="http://www.w3.org/2000/svg">
<rect x="0.1" y="0.1" width="15.8" height="15.8" rx="4.9" fill="#009EE0" stroke="#009EE0" stroke-width="0.2"/>
<path d="M5 11.5H6.5V8.5H9.5V11.5H11V7L8 4.75L5 7V11.5ZM5 12.5C4.725 12.5 4.48967 12.4022 4.294 12.2065C4.098 12.0105 4 11.775 4 11.5V7C4 6.84167 4.0355 6.69167 4.1065 6.55C4.17717 6.40833 4.275 6.29167 4.4 6.2L7.4 3.95C7.49167 3.88333 7.5875 3.83333 7.6875 3.8C7.7875 3.76667 7.89167 3.75 8 3.75C8.10833 3.75 8.2125 3.76667 8.3125 3.8C8.4125 3.83333 8.50833 3.88333 8.6 3.95L11.6 6.2C11.725 6.29167 11.823 6.40833 11.894 6.55C11.9647 6.69167 12 6.84167 12 7V11.5C12 11.775 11.9022 12.0105 11.7065 12.2065C11.5105 12.4022 11.275 12.5 11 12.5H8.5V9.5H7.5V12.5H5Z" fill="white"/>
</svg>
